<svg width="64" height="64" viewBox="0 0 64 64" fill="none" xmlns="http://www.w3.org/2000/svg">
<g clip-path="url(#clip0_1_3)">
<rect x="8" width="48" height="64" fill="#960316"/>
<path d="M19.184 13.564C19.448 13.468 19.664 13.468 19.832 13.564C20.024 13.636 20.396 13.912 20.948 14.392L21.704 15.076L21.488 16.156C21.392 16.876 21.308 17.44 21.236 17.848C21.164 18.184 21.164 18.796 21.236 19.684C21.308 20.572 21.392 21.1 21.488 21.268C21.584 21.436 22.04 21.304 22.856 20.872C23.696 20.416 24.308 20.02 24.692 19.684C25.076 19.348 25.304 19.204 25.376 19.252C25.616 19.492 25.4 20.056 24.728 20.944C23.792 22.168 23.324 22.9 23.324 23.14C23.324 23.284 23.108 23.62 22.676 24.148C22.268 24.652 22.064 24.94 22.064 25.012C22.064 25.108 21.812 25.48 21.308 26.128C20.828 26.752 20.468 27.184 20.228 27.424C19.94 27.688 19.592 27.904 19.184 28.072C18.848 28.216 18.488 28.276 18.104 28.252C17.72 28.252 17.528 28.168 17.528 28C17.528 27.88 17.324 27.736 16.916 27.568C16.484 27.376 16.148 27.076 15.908 26.668C15.668 26.26 15.596 25.888 15.692 25.552C15.788 25.336 16.016 25.084 16.376 24.796C16.76 24.508 17.024 24.376 17.168 24.4C17.264 24.448 17.516 24.352 17.924 24.112C18.332 23.848 18.704 23.56 19.04 23.248L19.724 22.636L19.292 18.964C18.98 16.612 18.812 15.16 18.788 14.608C18.788 14.056 18.92 13.708 19.184 13.564ZM28.688 14.176C28.256 13.648 28.016 13.084 27.968 12.484C27.944 11.86 27.98 11.5 28.076 11.404C28.196 11.308 28.616 11.248 29.336 11.224C30.08 11.2 30.752 11.128 31.352 11.008C31.976 10.864 32.984 10.684 34.376 10.468C35.768 10.228 36.584 10.072 36.824 10C37.088 9.928 37.76 9.928 38.84 10C39.536 10.024 40.016 10.072 40.28 10.144C40.568 10.216 40.88 10.372 41.216 10.612C42.152 11.284 42.152 11.872 41.216 12.376C40.328 12.88 39.164 14.224 37.724 16.408C37.196 17.248 36.932 17.8 36.932 18.064C36.932 18.304 37.196 18.724 37.724 19.324C37.988 19.612 38.288 20.008 38.624 20.512C38.936 21.016 39.488 21.604 40.28 22.276C41.096 22.948 41.876 23.476 42.62 23.86C43.364 24.268 43.82 24.544 43.988 24.688C44.18 24.832 44.696 25.024 45.536 25.264C46.28 25.504 46.928 25.816 47.48 26.2C48.056 26.56 48.344 26.848 48.344 27.064C48.344 27.304 48.2 27.556 47.912 27.82C47.696 28.036 47.48 28.156 47.264 28.18C47.048 28.228 46.556 28.228 45.788 28.18C44.636 28.108 43.628 27.964 42.764 27.748C42.188 27.58 41.816 27.496 41.648 27.496C41.48 27.496 41.336 27.544 41.216 27.64C41 27.832 40.856 27.856 40.784 27.712C40.736 27.568 40.592 27.496 40.352 27.496C40.136 27.496 39.584 27.136 38.696 26.416C37.808 25.672 37.304 25.168 37.184 24.904C37.04 24.64 36.932 24.268 36.86 23.788C36.836 23.452 36.62 22.864 36.212 22.024C35.804 21.184 35.552 20.764 35.456 20.764C35.432 20.764 35.216 21.04 34.808 21.592C34.4 22.12 34.112 22.384 33.944 22.384C33.8 22.384 33.596 22.528 33.332 22.816C33.068 23.104 32.468 23.356 31.532 23.572C30.62 23.788 30.128 24.016 30.056 24.256C30.032 24.424 29.864 24.556 29.552 24.652C29.264 24.748 29.06 24.724 28.94 24.58C28.844 24.436 28.484 24.46 27.86 24.652C27.404 24.796 27.104 24.868 26.96 24.868C26.816 24.868 26.66 24.796 26.492 24.652C26.228 24.484 26.096 24.364 26.096 24.292C26.096 24.196 26.18 23.968 26.348 23.608C26.54 23.176 27.008 22.84 27.752 22.6L29.768 21.844C30.368 21.628 31.088 21.436 31.928 21.268C32.528 21.148 32.924 21.028 33.116 20.908C33.308 20.788 33.572 20.524 33.908 20.116C34.34 19.516 34.556 19.144 34.556 19C34.556 18.808 34.364 18.628 33.98 18.46C33.596 18.268 33.2 18.172 32.792 18.172C31.784 18.172 31.112 17.8 30.776 17.056C30.632 16.744 30.62 16.504 30.74 16.336C30.884 16.168 31.208 16.024 31.712 15.904C32.12 15.76 32.684 15.772 33.404 15.94C34.124 16.108 34.688 16.324 35.096 16.588C35.432 16.828 35.648 16.948 35.744 16.948C35.864 16.948 36.176 16.564 36.68 15.796C38.192 13.3 38.948 12.016 38.948 11.944C38.948 11.656 38.084 11.968 36.356 12.88C34.1 14.056 32.132 14.704 30.452 14.824L29.3 14.932L28.688 14.176ZM21.236 6.364C21.404 6.22 21.608 6.184 21.848 6.256C22.112 6.328 22.244 6.448 22.244 6.616C22.244 6.688 22.46 6.844 22.892 7.084C23.3 7.3 23.744 7.624 24.224 8.056C24.728 8.464 24.98 8.74 24.98 8.884C24.98 9.052 24.8 9.268 24.44 9.532C24.08 9.772 23.792 9.892 23.576 9.892C23.264 9.892 22.976 9.976 22.712 10.144C22.472 10.288 22.052 10.372 21.452 10.396C20.06 10.468 19.196 10.588 18.86 10.756C18.644 10.876 18.296 10.972 17.816 11.044C17.504 11.092 17.3 11.104 17.204 11.08C17.132 11.032 17.048 10.9 16.952 10.684C16.856 10.396 16.94 10 17.204 9.496C17.468 8.992 17.708 8.68 17.924 8.56C18.164 8.44 18.548 8.128 19.076 7.624C19.604 7.096 20.036 6.796 20.372 6.724C20.708 6.628 20.996 6.508 21.236 6.364Z" fill="url(#paint0_linear_1_3)"/>
<path d="M27.536 42.428C28.184 42.428 29.096 42.224 30.272 41.816C31.448 41.384 32.624 41.096 33.8 40.952C34.976 40.808 35.588 40.712 35.636 40.664C35.684 40.592 35.888 40.604 36.248 40.7C36.632 40.772 37.004 40.82 37.364 40.844C37.676 40.844 38.036 41 38.444 41.312C38.876 41.6 39.092 41.84 39.092 42.032C39.092 42.224 38.816 42.44 38.264 42.68C37.904 42.8 37.256 43.328 36.32 44.264C35.384 45.176 34.916 45.716 34.916 45.884C34.916 46.028 35.024 46.256 35.24 46.568C35.48 46.856 35.6 47.264 35.6 47.792V48.548L37.22 48.476C38.252 48.404 38.96 48.32 39.344 48.224C40.952 47.744 42.056 47.66 42.656 47.972C42.992 48.14 43.244 48.224 43.412 48.224C43.58 48.224 43.952 48.332 44.528 48.548C45.128 48.764 45.476 48.932 45.572 49.052C45.812 49.292 45.704 49.46 45.248 49.556C45.08 49.628 44.888 49.664 44.672 49.664C44.144 49.664 43.568 49.628 42.944 49.556C42.32 49.46 41.972 49.364 41.9 49.268C41.78 49.172 41.564 49.124 41.252 49.124C40.94 49.124 40.712 49.064 40.568 48.944C40.448 48.8 40.184 48.8 39.776 48.944C39.392 49.064 38.864 49.124 38.192 49.124C36.704 49.124 35.876 49.52 35.708 50.312C35.636 50.72 35.636 51.044 35.708 51.284C35.852 51.524 35.924 52.364 35.924 53.804C35.924 55.244 35.888 56.252 35.816 56.828C35.6 57.836 35.312 58.592 34.952 59.096C34.616 59.6 34.208 59.804 33.728 59.708C33.368 59.636 33.116 59.54 32.972 59.42C32.852 59.3 32.408 59.18 31.64 59.06C30.32 58.844 29.54 58.508 29.3 58.052C29.204 57.884 29.192 57.776 29.264 57.728C29.36 57.704 29.624 57.656 30.056 57.584C30.704 57.512 31.4 57.476 32.144 57.476C32.648 57.476 32.984 57.44 33.152 57.368C33.344 57.32 33.536 57.188 33.728 56.972C33.968 56.732 34.124 56.444 34.196 56.108C34.292 55.772 34.412 54.992 34.556 53.768C34.628 52.928 34.64 52.16 34.592 51.464C34.568 50.768 34.484 50.372 34.34 50.276C34.244 50.204 33.992 50.276 33.584 50.492C32.072 51.164 29.792 52.016 26.744 53.048C25.088 53.624 23.816 53.96 22.928 54.056C22.04 54.152 21.164 54.068 20.3 53.804C19.676 53.612 19.184 53.504 18.824 53.48C18.488 53.432 18.32 53.288 18.32 53.048C18.32 52.856 18.464 52.712 18.752 52.616C19.04 52.496 19.808 52.304 21.056 52.04C22.112 51.848 23.456 51.536 25.088 51.104C26.72 50.648 28.568 50.204 30.632 49.772C32.696 49.34 33.788 49.076 33.908 48.98C34.028 48.836 33.92 48.572 33.584 48.188C33.248 47.804 32.768 47.408 32.144 47C31.472 46.568 31.028 46.22 30.812 45.956C30.62 45.668 30.56 45.356 30.632 45.02C30.68 44.756 30.776 44.624 30.92 44.624C31.088 44.624 31.436 44.756 31.964 45.02C32.588 45.332 33.008 45.488 33.224 45.488C33.512 45.488 34.124 44.84 35.06 43.544C36.02 42.248 36.44 41.54 36.32 41.42C36.248 41.348 35.852 41.552 35.132 42.032C34.412 42.512 33.944 42.752 33.728 42.752C33.536 42.752 32.768 43.064 31.424 43.688C30.104 44.288 29.276 44.6 28.94 44.624C28.676 44.624 28.388 44.564 28.076 44.444C27.788 44.3 27.644 44.156 27.644 44.012C27.644 43.916 27.464 43.784 27.104 43.616C26.768 43.424 26.6 43.172 26.6 42.86C26.6 42.668 26.636 42.548 26.708 42.5C26.804 42.452 27.08 42.428 27.536 42.428ZM22.136 39.188C22.76 38.54 23.168 38.216 23.36 38.216C23.72 38.216 23.912 38.516 23.936 39.116C23.96 39.692 23.804 40.34 23.468 41.06C23.252 41.516 23.06 42.056 22.892 42.68C22.796 43.136 22.592 43.544 22.28 43.904C21.992 44.264 21.752 44.384 21.56 44.264C21.416 44.24 21.128 43.94 20.696 43.364C20.264 42.764 20.048 42.392 20.048 42.248C20.048 42.08 20.276 41.66 20.732 40.988C21.212 40.292 21.68 39.692 22.136 39.188ZM29.408 30.836C29.576 30.764 29.972 30.848 30.596 31.088C31.244 31.304 31.868 31.604 32.468 31.988C32.78 32.156 32.996 32.432 33.116 32.816C33.26 33.176 33.248 33.44 33.08 33.608C32.96 33.728 32.9 34.004 32.9 34.436C32.9 34.844 32.84 35.252 32.72 35.66C32.624 36.068 32.612 36.296 32.684 36.344C32.78 36.392 33.368 36.332 34.448 36.164C35.528 35.996 36.548 35.912 37.508 35.912C38.492 35.912 39.164 35.864 39.524 35.768C39.908 35.696 40.484 35.768 41.252 35.984C42.02 36.176 42.572 36.392 42.908 36.632C43.244 36.848 43.46 36.956 43.556 36.956C43.7 36.956 44.048 37.184 44.6 37.64C45.152 38.096 45.476 38.432 45.572 38.648C45.74 38.936 45.728 39.164 45.536 39.332C45.368 39.476 45.032 39.548 44.528 39.548C42.824 39.476 41.552 39.62 40.712 39.98C40.16 40.22 39.584 40.424 38.984 40.592C38.408 40.76 38.084 40.808 38.012 40.736C37.892 40.616 37.916 40.388 38.084 40.052C38.276 39.716 38.54 39.44 38.876 39.224C39.356 38.936 39.848 38.552 40.352 38.072C40.784 37.64 40.976 37.34 40.928 37.172C40.88 36.98 40.556 36.8 39.956 36.632C39.452 36.488 38.648 36.548 37.544 36.812C36.464 37.052 35.816 37.268 35.6 37.46C35.408 37.628 35.024 37.784 34.448 37.928C31.76 38.696 29.972 39.14 29.084 39.26C28.22 39.356 27.488 39.236 26.888 38.9C26.384 38.612 26.072 38.384 25.952 38.216C25.832 38.048 25.868 37.928 26.06 37.856C26.276 37.76 26.684 37.688 27.284 37.64C28.052 37.52 28.844 37.376 29.66 37.208C30.5 37.016 30.92 36.872 30.92 36.776C30.92 36.68 30.836 36.464 30.668 36.128C30.476 35.744 30.164 34.904 29.732 33.608C29.324 32.312 29.12 31.568 29.12 31.376C29.12 31.136 29.216 30.956 29.408 30.836Z" fill="url(#paint1_linear_1_3)"/>
</g>
<defs>
<linearGradient id="paint0_linear_1_3" x1="19.5" y1="10.25" x2="27.2127" y2="30.1483" gradientUnits="userSpaceOnUse">
<stop stop-color="#EBC862"/>
<stop offset="1" stop-color="#CA9D08"/>
</linearGradient>
<linearGradient id="paint1_linear_1_3" x1="19.5" y1="38.25" x2="27.2127" y2="58.1483" gradientUnits="userSpaceOnUse">
<stop stop-color="#EBC862"/>
<stop offset="1" stop-color="#CA9D08"/>
</linearGradient>
<clipPath id="clip0_1_3">
<rect width="64" height="64" fill="white"/>
</clipPath>
</defs>
</svg>
